<svg id="visual" viewBox="0 0 1440 980" width="1440" height="980" xmlns="http://www.w3.org/2000/svg" xmlns:xlink="http://www.w3.org/1999/xlink" version="1.1"><rect x="0" y="0" width="1440" height="980" fill="#FFFFFF"></rect><defs><linearGradient id="grad1_0" x1="31.9%" y1="0%" x2="100%" y2="100%"><stop offset="20.61224489795918%" stop-color="#ffffff" stop-opacity="1"></stop><stop offset="79.38775510204081%" stop-color="#ffffff" stop-opacity="1"></stop></linearGradient></defs><defs><linearGradient id="grad2_0" x1="0%" y1="0%" x2="68.1%" y2="100%"><stop offset="20.61224489795918%" stop-color="#ffffff" stop-opacity="1"></stop><stop offset="79.38775510204081%" stop-color="#ffffff" stop-opacity="1"></stop></linearGradient></defs><g transform="translate(1440, 0)"><path d="M0 391.9C-79.2 387.8 -158.3 383.7 -196 339.4C-233.6 295.1 -229.7 210.8 -255.5 147.5C-281.2 84.2 -336.6 42.1 -391.9 0L0 0Z" fill="#FBAE3C"></path></g><g transform="translate(0, 980)"><path d="M0 -391.9C47.5 -345.8 94.9 -299.7 157.5 -272.8C220.1 -245.9 297.8 -238.2 339.4 -196C381 -153.7 386.5 -76.8 391.9 0L0 0Z" fill="#FBAE3C"></path></g></svg>